<svg version="1.1" viewBox="0.0 0.0 666.1968503937007 241.31496062992127" fill="none" stroke="none" stroke-linecap="square" stroke-miterlimit="10" xmlns:xlink="http://www.w3.org/1999/xlink" xmlns="http://www.w3.org/2000/svg"><clipPath id="p.0"><path d="m0 0l666.19684 0l0 241.31496l-666.19684 0l0 -241.31496z" clip-rule="nonzero"/></clipPath><g clip-path="url(#p.0)"><path fill="#000000" fill-opacity="0.0" d="m0 0l666.19684 0l0 241.31496l-666.19684 0z" fill-rule="evenodd"/><path fill="#6bd75d" d="m85.55943 62.327652l-1.6954956 17.101875c-0.25486755 0.21890259 -0.79291534 0.5107727 -1.6141663 0.875618c-0.80708313 0.36484528 -1.6354065 0.5472641 -2.4849625 0.5472641c-1.8832016 0 -3.2849808 -0.53684235 -4.20533 -1.6105118c-0.90621185 -1.0736694 -1.3592987 -2.6529083 -1.3592987 -4.7377167c0 -2.741516 0.8424835 -4.993103 2.527443 -6.7547607c1.6849594 -1.7616577 3.497345 -3.0855103 5.437195 -3.97155c1.1610718 -0.53162384 2.1734772 -0.95900726 3.037178 -1.2821541c0.13616943 -0.050125122 0.25531006 -0.10614395 0.35743713 -0.16806412zm-81.278175 -53.291496l0 13.572067l17.522207 0l0 70.549736l21.939928 0l0 -70.549736l17.458488 0l0 -13.572067zm75.929565 14.822948c-7.3062286 0 -13.401833 1.4333019 -18.286812 4.2999077c-4.8708115 2.8561783 -7.3062286 7.01536 -7.3062286 12.477545c0 1.9701385 0.56638336 4.763775 1.6991234 8.380909l17.182384 0l0 -4.581356c0 -3.1793213 0.65133667 -5.258915 1.9539871 -6.2387733c1.3026581 -0.9798584 2.7185974 -1.4697838 4.2478104 -1.4697838c1.4159393 0 2.378769 0.2449646 2.8885117 0.73489c0.5239029 0.47950745 0.86372375 1.3082161 1.0194702 2.4861298c0.16991425 1.1779137 0.25486755 2.5486717 0.25486755 4.112274l0 6.4107666c-0.43894196 0.114665985 -1.6212616 0.49514008 -3.5469208 1.1414299c-1.9115067 0.6358681 -3.6885147 1.2560959 -5.3309937 1.8606873c-7.0230484 2.5747337 -12.417767 5.582062 -16.18415 9.021984c-3.7663803 3.4399223 -5.649582 8.052555 -5.649582 13.837879c0 3.022972 0.67964935 5.8582993 2.038948 8.505997c1.3592987 2.647705 3.4902725 4.8211136 6.392948 6.5202255c2.9026756 1.6991119 6.5841026 2.548668 11.0443 2.548668c4.177017 0 7.858444 -0.6775665 11.044304 -2.0326843c2.6518097 -1.1229706 4.1076126 -1.9560242 4.3674393 -2.4991684l0 0l-0.0983963 3.7813263l17.479729 0l0 -50.83271c0 -3.9819756 -0.7575302 -7.359356 -2.2725754 -10.132141c-1.5009003 -2.7832127 -4.141609 -4.868017 -7.922165 -6.25441c-3.7663803 -1.3863926 -8.771721 -2.0795918 -15.015999 -2.0795918z" fill-rule="evenodd"/><path fill="#6bd75d" d="m136.40932 23.812199c-4.2053223 0 -8.148697 0.5993824 -11.830139 1.7981434c-3.6814346 1.198761 -6.676155 3.0490227 -8.984116 5.550787c-2.2938156 2.5017624 -3.4407196 5.6289673 -3.4407196 9.381615c0 4.1070633 1.2743378 7.8180084 3.823021 11.132847c2.5628433 3.304409 5.4159546 6.4211884 8.559334 9.350342l11.299164 10.241592c1.6566467 1.4489365 2.9026794 2.715454 3.738083 3.799553c0.83540344 1.0736694 1.2530975 2.1212845 1.2530975 3.1428452c0 0.79222107 -0.3398285 1.4645691 -1.0194702 2.017044c-0.679657 0.5420456 -1.684967 0.8130722 -3.0159454 0.8130722c-1.9681549 0 -3.5469208 -0.69319916 -4.736313 -2.0795898c-1.1893768 -1.3863907 -1.7840729 -4.8992844 -1.7840729 -10.538681l-16.035477 0c-0.77877045 1.7825089 -1.3663864 3.3825989 -1.7628403 4.8002625c-0.38230133 1.4072418 -0.5734558 2.8822403 -0.5734558 4.4249954c0 3.940277 1.1044312 7.1248093 3.3132935 9.553604c2.2088623 2.418373 5.139847 4.1331177 8.792961 5.1442566c3.6531143 1.0111237 7.5964966 1.5166931 11.830139 1.5166931c7.915085 0 14.074402 -1.574028 18.477966 -4.722084c4.4035645 -3.1584702 6.6053467 -7.2863846 6.6053467 -12.383728c0 -2.7936325 -0.65841675 -5.3683624 -1.975235 -7.7241898c-1.3168182 -2.3662567 -2.8177032 -4.456276 -4.5026703 -6.27005c-1.684967 -1.8137779 -3.1717072 -3.3096237 -4.460205 -4.4875374l-12.722183 -11.351749c-1.5433655 -1.4280891 -2.7469025 -2.6477013 -3.6106262 -3.6588326c-0.8495636 -1.0111275 -1.274353 -2.074379 -1.274353 -3.1897469c0 -1.0007057 0.2690277 -1.8242035 0.80708313 -2.4704933c0.5380554 -0.646286 1.5292206 -0.96943283 2.973465 -0.96943283c1.769928 0 3.1292267 0.77659225 4.077896 2.3297691c0.94866943 1.5427551 1.47966 4.9566193 1.592926 10.241592l15.950531 0c0.6938019 -2.0535278 1.2318573 -3.8308258 1.6141663 -5.3318825c0.3822937 -1.5010567 0.57344055 -3.0490227 0.57344055 -4.643898c0 -5.107769 -2.1876068 -8.954229 -6.562851 -11.539385c-4.361084 -2.5851555 -10.024826 -3.8777332 -16.991241 -3.8777332zm37.465668 -15.99565l-3.2495728 16.746178l-9.217743 0l0 13.009172l7.4549103 0l0 37.49518c0 4.9722595 0.9345093 8.849991 2.803543 11.633202c1.883194 2.772789 4.3894043 4.6699677 7.518631 5.691513c3.1292114 1.0111237 6.371704 1.5166931 9.727478 1.5166931c2.5345306 0 5.2106476 -0.3335724 8.028351 -1.0007019c2.8177032 -0.6775665 5.5079803 -2.183838 8.070831 -4.518814l0 -11.805199c-4.446045 2.0326843 -7.9009247 3.0490265 -10.364655 3.0490265c-1.2743378 0 -2.300888 -0.20848083 -3.0796509 -0.6254425c-0.76460266 -0.42738342 -1.1469116 -1.7095413 -1.1469116 -3.8464584l0 -37.588997l14.654938 0l0 -4.108082l18.626633 58.255627c-0.21238708 3.8151855 -1.5646057 6.520218 -4.056656 8.115097c-1.7900543 1.145607 -4.518921 1.7184143 -8.186569 1.7184143c-1.4382935 0 -3.0209503 -0.08808899 -4.748001 -0.26426697l0 10.960854c4.375244 1.1883316 8.106232 1.7825012 11.192978 1.7825012c7.6885223 0 13.458466 -1.7199631 17.309814 -5.1598816c3.865509 -3.4295044 6.676132 -8.406975 8.4319 -14.932404l18.669098 -69.37703l-21.196548 0l-7.6551666 36.70848l-9.484741 -36.70848l-33.55768 0l0 -16.746178z" fill-rule="evenodd"/><path fill="#6bd75d" d="m319.15002 8.332537c-8.708008 0 -15.568237 1.897171 -20.580627 5.691512c-4.9982605 3.7839174 -7.497406 8.605025 -7.497406 14.463321c0 3.8047676 0.8991394 7.2499046 2.6973572 10.335411c1.7982483 3.0750847 4.2761536 6.1241074 7.4336853 9.147072l17.203613 15.901836c2.860199 2.689392 4.750458 4.9149246 5.6708374 6.6765823c0.9345093 1.7616501 1.4017639 3.4086533 1.4017639 4.940979c0 3.2627182 -2.279663 4.8940735 -6.8389587 4.8940735c-2.6478271 0 -4.6726074 -0.90167236 -6.0743713 -2.7050323c-1.4017944 -1.8137741 -2.1026611 -4.7012253 -2.1026611 -8.6623535l0 -5.5664215l-17.649658 0c-0.9203491 2.741516 -1.5292053 4.8888626 -1.8265381 6.4420395c-0.28320312 1.5427551 -0.4248047 3.2210236 -0.4248047 5.0347977c0 3.1167831 0.84957886 6.1345367 2.548706 9.053261c1.6991272 2.9187164 4.6371765 5.3058167 8.814178 7.161293c4.1911926 1.8450546 9.805359 2.7675781 16.84256 2.7675781c8.693848 0 15.716888 -1.80336 21.069122 -5.4100647c5.3522644 -3.617134 8.028381 -8.485153 8.028381 -14.604042c0 -3.9819717 -0.9911804 -7.5782547 -2.9734802 -10.7888565c-1.9681396 -3.2210197 -4.778778 -6.572338 -8.431885 -10.053963l-19.157623 -17.903244c-1.4725647 -1.4489403 -2.6548767 -2.8196983 -3.5469055 -4.112274c-0.87789917 -1.2925777 -1.3168335 -2.689396 -1.3168335 -4.1904545c0 -1.6052971 0.5380554 -2.835331 1.6141663 -3.6901016c1.090271 -0.8651924 2.7893982 -1.2977886 5.0973816 -1.2977886c2.3645935 0 4.261963 0.9016762 5.692047 2.7050304c1.4442444 1.7929306 2.1663818 4.617838 2.1663818 8.474726l0 5.84787l17.692108 0c0.7646179 -2.835331 1.3309937 -5.0087357 1.6991272 -6.520218c0.38232422 -1.5219078 0.5734558 -3.205387 0.5734558 -5.050438c0 -2.9916916 -0.84954834 -5.9416866 -2.5486755 -8.849987c-1.684967 -2.918725 -4.5876465 -5.337096 -8.708008 -7.2551146c-4.106201 -1.9180193 -9.628357 -2.8770285 -16.566437 -2.8770285z" fill-rule="evenodd"/><path fill="#6bd75d" d="m388.85654 23.812199c-3.6247864 0 -7.242523 0.61501694 -10.853149 1.8450508c-2.2843628 0.7716179 -4.095459 2.096096 -5.433319 3.9734287l0 0l-1.1720276 -5.067951l-17.309814 0l0 68.59523l21.557617 0l0 -52.67776c0.7362976 -0.8234978 1.677887 -1.5271187 2.8247986 -2.1108627c1.1610718 -0.5941696 2.265503 -0.8912544 3.3132935 -0.8912544c1.4159241 0 2.4849854 0.33878326 3.2070923 1.0163422c0.72213745 0.66713715 1.0831909 2.1942596 1.0831909 4.581356l0 50.08218l21.557617 0l0 -51.48942c0 -5.7123604 -1.6354065 -10.116505 -4.9062195 -13.2124405c-3.2566528 -3.095932 -7.879669 -4.643898 -13.86908 -4.643898z" fill-rule="evenodd"/><path fill="#6bd75d" d="m446.0709 62.327652l-1.6954956 17.101875c-0.2548828 0.21890259 -0.79293823 0.5107727 -1.6141663 0.875618c-0.8070984 0.36484528 -1.6354065 0.5472641 -2.4849854 0.5472641c-1.8831787 0 -3.2849731 -0.53684235 -4.2053223 -1.6105118c-0.90618896 -1.0736694 -1.359314 -2.6529083 -1.359314 -4.7377167c0 -2.741516 0.8424988 -4.993103 2.5274658 -6.7547607c1.684967 -1.7616577 3.4973755 -3.0855103 5.437195 -3.97155c1.1610718 -0.53162384 2.173462 -0.95900726 3.0371704 -1.2821541c0.13616943 -0.050125122 0.25534058 -0.10614395 0.3574524 -0.16806412zm-5.348633 -38.468544c-7.3062134 0 -13.401825 1.4333019 -18.286804 4.2999077c-4.870819 2.8561783 -7.3062134 7.01536 -7.3062134 12.477545c0 1.9701385 0.5663452 4.763775 1.6990967 8.380909l17.182404 0l0 -4.581356c0 -3.1793213 0.65130615 -5.258915 1.9539795 -6.2387733c1.3026733 -0.9798584 2.7185974 -1.4697838 4.2478027 -1.4697838c1.4159546 0 2.3787842 0.2449646 2.8885193 0.73489c0.52389526 0.47950745 0.8637085 1.3082161 1.0194702 2.4861298c0.16992188 1.1779137 0.2548828 2.5486717 0.2548828 4.112274l0 6.4107666c-0.43893433 0.114665985 -1.6212463 0.49514008 -3.546936 1.1414299c-1.911499 0.6358681 -3.688507 1.2560959 -5.3309937 1.8606873c-7.023041 2.5747337 -12.417755 5.582062 -16.184143 9.021984c-3.766388 3.4399223 -5.649597 8.052555 -5.649597 13.837879c0 3.022972 0.679657 5.8582993 2.038971 8.505997c1.3592834 2.647705 3.490265 4.8211136 6.3929443 6.5202255c2.902649 1.6991119 6.5841064 2.548668 11.044281 2.548668c4.1770325 0 7.8584595 -0.6775665 11.044312 -2.0326843c2.651825 -1.1229706 4.1076355 -1.9560242 4.3674316 -2.4991684l0 0l-0.09838867 3.7813263l17.479736 0l0 -50.83271c0 -3.9819756 -0.75753784 -7.359356 -2.272583 -10.132141c-1.500885 -2.7832127 -4.1416016 -4.868017 -7.9221497 -6.25441c-3.766388 -1.3863926 -8.7717285 -2.0795918 -15.016022 -2.0795918z" fill-rule="evenodd"/><path fill="#6bd75d" d="m501.9544 23.812199c-1.9539795 0 -4.1345215 0.16678429 -6.5415955 0.50035286c-2.3929443 0.323143 -4.8496094 1.021553 -7.3699646 2.0952263c-2.5203552 1.0632496 -4.8000183 2.6789722 -6.8389587 4.847168c-2.0247803 2.1577702 -3.6389465 4.961828 -4.842499 8.41218c-1.1893921 3.450348 -1.7840881 7.7294083 -1.7840881 12.837173l0 12.1960945c0 10.007057 2.1522217 17.37162 6.456665 22.093704c4.3186035 4.7116547 10.654907 7.067482 19.008942 7.067482c8.084991 0 14.166443 -1.60009 18.244324 -4.8002625c4.092041 -3.2001724 6.1380615 -8.13073 6.1380615 -14.791672l0 -4.9566193l-18.499176 0l0 4.8158875c0 2.918724 -0.48849487 4.8002625 -1.4654846 5.6446075c-0.97698975 0.8443451 -1.8548889 1.2665176 -2.6336365 1.2665176c-1.8973694 0 -3.3132935 -0.88603973 -4.2478027 -2.6581268c-0.92037964 -1.7720795 -1.3805542 -5.347519 -1.3805542 -10.726311l0 -18.34105c0 -5.2641296 0.5097351 -8.69363 1.5292053 -10.288506c1.0336609 -1.5948715 2.272583 -2.392311 3.7168274 -2.392311c1.2460327 0 2.3009338 0.66192627 3.1646423 1.985775c0.87786865 1.313427 1.316803 3.4399261 1.316803 6.3794975l0 4.0184593l17.076202 0c0.7079468 -2.0848045 1.1610718 -3.7161598 1.359314 -4.8940773c0.21234131 -1.1779099 0.31854248 -2.543457 0.31854248 -4.0966377c0 -5.462181 -2.1380615 -9.527548 -6.4141846 -12.196096c-4.261963 -2.6789722 -9.699158 -4.0184574 -16.311584 -4.0184574z" fill-rule="evenodd"/><path fill="#6bd75d" d="m529.75635 3.8293626l0 89.3286l21.557617 0l-2.1207886 -32.32198l16.733215 32.32198l22.216064 0l-21.79126 -37.557728l20.134583 -31.037504l-21.536377 0l-15.7907715 28.7758l2.1553345 -49.509167z" fill-rule="evenodd"/><path stroke="#3b8b30" stroke-width="4.0" stroke-linejoin="round" stroke-linecap="butt" d="m85.55943 62.327652l-1.6954956 17.101875c-0.25486755 0.21890259 -0.79291534 0.5107727 -1.6141663 0.875618c-0.80708313 0.36484528 -1.6354065 0.5472641 -2.4849625 0.5472641c-1.8832016 0 -3.2849808 -0.53684235 -4.20533 -1.6105118c-0.90621185 -1.0736694 -1.3592987 -2.6529083 -1.3592987 -4.7377167c0 -2.741516 0.8424835 -4.993103 2.527443 -6.7547607c1.6849594 -1.7616577 3.497345 -3.0855103 5.437195 -3.97155c1.1610718 -0.53162384 2.1734772 -0.95900726 3.037178 -1.2821541c0.13616943 -0.050125122 0.25531006 -0.10614395 0.35743713 -0.16806412zm-81.278175 -53.291496l0 13.572067l17.522207 0l0 70.549736l21.939928 0l0 -70.549736l17.458488 0l0 -13.572067zm75.929565 14.822948c-7.3062286 0 -13.401833 1.4333019 -18.286812 4.2999077c-4.8708115 2.8561783 -7.3062286 7.01536 -7.3062286 12.477545c0 1.9701385 0.56638336 4.763775 1.6991234 8.380909l17.182384 0l0 -4.581356c0 -3.1793213 0.65133667 -5.258915 1.9539871 -6.2387733c1.3026581 -0.9798584 2.7185974 -1.4697838 4.2478104 -1.4697838c1.4159393 0 2.378769 0.2449646 2.8885117 0.73489c0.5239029 0.47950745 0.86372375 1.3082161 1.0194702 2.4861298c0.16991425 1.1779137 0.25486755 2.5486717 0.25486755 4.112274l0 6.4107666c-0.43894196 0.114665985 -1.6212616 0.49514008 -3.5469208 1.1414299c-1.9115067 0.6358681 -3.6885147 1.2560959 -5.3309937 1.8606873c-7.0230484 2.5747337 -12.417767 5.582062 -16.18415 9.021984c-3.7663803 3.4399223 -5.649582 8.052555 -5.649582 13.837879c0 3.022972 0.67964935 5.8582993 2.038948 8.505997c1.3592987 2.647705 3.4902725 4.8211136 6.392948 6.5202255c2.9026756 1.6991119 6.5841026 2.548668 11.0443 2.548668c4.177017 0 7.858444 -0.6775665 11.044304 -2.0326843c2.6518097 -1.1229706 4.1076126 -1.9560242 4.3674393 -2.4991684l0 0l-0.0983963 3.7813263l17.479729 0l0 -50.83271c0 -3.9819756 -0.7575302 -7.359356 -2.2725754 -10.132141c-1.5009003 -2.7832127 -4.141609 -4.868017 -7.922165 -6.25441c-3.7663803 -1.3863926 -8.771721 -2.0795918 -15.015999 -2.0795918z" fill-rule="evenodd"/><path stroke="#3b8b30" stroke-width="4.0" stroke-linejoin="round" stroke-linecap="butt" d="m136.40932 23.812199c-4.2053223 0 -8.148697 0.5993824 -11.830139 1.7981434c-3.6814346 1.198761 -6.676155 3.0490227 -8.984116 5.550787c-2.2938156 2.5017624 -3.4407196 5.6289673 -3.4407196 9.381615c0 4.1070633 1.2743378 7.8180084 3.823021 11.132847c2.5628433 3.304409 5.4159546 6.4211884 8.559334 9.350342l11.299164 10.241592c1.6566467 1.4489365 2.9026794 2.715454 3.738083 3.799553c0.83540344 1.0736694 1.2530975 2.1212845 1.2530975 3.1428452c0 0.79222107 -0.3398285 1.4645691 -1.0194702 2.017044c-0.679657 0.5420456 -1.684967 0.8130722 -3.0159454 0.8130722c-1.9681549 0 -3.5469208 -0.69319916 -4.736313 -2.0795898c-1.1893768 -1.3863907 -1.7840729 -4.8992844 -1.7840729 -10.538681l-16.035477 0c-0.77877045 1.7825089 -1.3663864 3.3825989 -1.7628403 4.8002625c-0.38230133 1.4072418 -0.5734558 2.8822403 -0.5734558 4.4249954c0 3.940277 1.1044312 7.1248093 3.3132935 9.553604c2.2088623 2.418373 5.139847 4.1331177 8.792961 5.1442566c3.6531143 1.0111237 7.5964966 1.5166931 11.830139 1.5166931c7.915085 0 14.074402 -1.574028 18.477966 -4.722084c4.4035645 -3.1584702 6.6053467 -7.2863846 6.6053467 -12.383728c0 -2.7936325 -0.65841675 -5.3683624 -1.975235 -7.7241898c-1.3168182 -2.3662567 -2.8177032 -4.456276 -4.5026703 -6.27005c-1.684967 -1.8137779 -3.1717072 -3.3096237 -4.460205 -4.4875374l-12.722183 -11.351749c-1.5433655 -1.4280891 -2.7469025 -2.6477013 -3.6106262 -3.6588326c-0.8495636 -1.0111275 -1.274353 -2.074379 -1.274353 -3.1897469c0 -1.0007057 0.2690277 -1.8242035 0.80708313 -2.4704933c0.5380554 -0.646286 1.5292206 -0.96943283 2.973465 -0.96943283c1.769928 0 3.1292267 0.77659225 4.077896 2.3297691c0.94866943 1.5427551 1.47966 4.9566193 1.592926 10.241592l15.950531 0c0.6938019 -2.0535278 1.2318573 -3.8308258 1.6141663 -5.3318825c0.3822937 -1.5010567 0.57344055 -3.0490227 0.57344055 -4.643898c0 -5.107769 -2.1876068 -8.954229 -6.562851 -11.539385c-4.361084 -2.5851555 -10.024826 -3.8777332 -16.991241 -3.8777332zm37.465668 -15.99565l-3.2495728 16.746178l-9.217743 0l0 13.009172l7.4549103 0l0 37.49518c0 4.9722595 0.9345093 8.849991 2.803543 11.633202c1.883194 2.772789 4.3894043 4.6699677 7.518631 5.691513c3.1292114 1.0111237 6.371704 1.5166931 9.727478 1.5166931c2.5345306 0 5.2106476 -0.3335724 8.028351 -1.0007019c2.8177032 -0.6775665 5.5079803 -2.183838 8.070831 -4.518814l0 -11.805199c-4.446045 2.0326843 -7.9009247 3.0490265 -10.364655 3.0490265c-1.2743378 0 -2.300888 -0.20848083 -3.0796509 -0.6254425c-0.76460266 -0.42738342 -1.1469116 -1.7095413 -1.1469116 -3.8464584l0 -37.588997l14.654938 0l0 -4.108082l18.626633 58.255627c-0.21238708 3.8151855 -1.5646057 6.520218 -4.056656 8.115097c-1.7900543 1.145607 -4.518921 1.7184143 -8.186569 1.7184143c-1.4382935 0 -3.0209503 -0.08808899 -4.748001 -0.26426697l0 10.960854c4.375244 1.1883316 8.106232 1.7825012 11.192978 1.7825012c7.6885223 0 13.458466 -1.7199631 17.309814 -5.1598816c3.865509 -3.4295044 6.676132 -8.406975 8.4319 -14.932404l18.669098 -69.37703l-21.196548 0l-7.6551666 36.70848l-9.484741 -36.70848l-33.55768 0l0 -16.746178z" fill-rule="evenodd"/><path stroke="#3b8b30" stroke-width="4.0" stroke-linejoin="round" stroke-linecap="butt" d="m319.15002 8.332537c-8.708008 0 -15.568237 1.897171 -20.580627 5.691512c-4.9982605 3.7839174 -7.497406 8.605025 -7.497406 14.463321c0 3.8047676 0.8991394 7.2499046 2.6973572 10.335411c1.7982483 3.0750847 4.2761536 6.1241074 7.4336853 9.147072l17.203613 15.901836c2.860199 2.689392 4.750458 4.9149246 5.6708374 6.6765823c0.9345093 1.7616501 1.4017639 3.4086533 1.4017639 4.940979c0 3.2627182 -2.279663 4.8940735 -6.8389587 4.8940735c-2.6478271 0 -4.6726074 -0.90167236 -6.0743713 -2.7050323c-1.4017944 -1.8137741 -2.1026611 -4.7012253 -2.1026611 -8.6623535l0 -5.5664215l-17.649658 0c-0.9203491 2.741516 -1.5292053 4.8888626 -1.8265381 6.4420395c-0.28320312 1.5427551 -0.4248047 3.2210236 -0.4248047 5.0347977c0 3.1167831 0.84957886 6.1345367 2.548706 9.053261c1.6991272 2.9187164 4.6371765 5.3058167 8.814178 7.161293c4.1911926 1.8450546 9.805359 2.7675781 16.84256 2.7675781c8.693848 0 15.716888 -1.80336 21.069122 -5.4100647c5.3522644 -3.617134 8.028381 -8.485153 8.028381 -14.604042c0 -3.9819717 -0.9911804 -7.5782547 -2.9734802 -10.7888565c-1.9681396 -3.2210197 -4.778778 -6.572338 -8.431885 -10.053963l-19.157623 -17.903244c-1.4725647 -1.4489403 -2.6548767 -2.8196983 -3.5469055 -4.112274c-0.87789917 -1.2925777 -1.3168335 -2.689396 -1.3168335 -4.1904545c0 -1.6052971 0.5380554 -2.835331 1.6141663 -3.6901016c1.090271 -0.8651924 2.7893982 -1.2977886 5.0973816 -1.2977886c2.3645935 0 4.261963 0.9016762 5.692047 2.7050304c1.4442444 1.7929306 2.1663818 4.617838 2.1663818 8.474726l0 5.84787l17.692108 0c0.7646179 -2.835331 1.3309937 -5.0087357 1.6991272 -6.520218c0.38232422 -1.5219078 0.5734558 -3.205387 0.5734558 -5.050438c0 -2.9916916 -0.84954834 -5.9416866 -2.5486755 -8.849987c-1.684967 -2.918725 -4.5876465 -5.337096 -8.708008 -7.2551146c-4.106201 -1.9180193 -9.628357 -2.8770285 -16.566437 -2.8770285z" fill-rule="evenodd"/><path stroke="#3b8b30" stroke-width="4.0" stroke-linejoin="round" stroke-linecap="butt" d="m388.85654 23.812199c-3.6247864 0 -7.242523 0.61501694 -10.853149 1.8450508c-2.2843628 0.7716179 -4.095459 2.096096 -5.433319 3.9734287l0 0l-1.1720276 -5.067951l-17.309814 0l0 68.59523l21.557617 0l0 -52.67776c0.7362976 -0.8234978 1.677887 -1.5271187 2.8247986 -2.1108627c1.1610718 -0.5941696 2.265503 -0.8912544 3.3132935 -0.8912544c1.4159241 0 2.4849854 0.33878326 3.2070923 1.0163422c0.72213745 0.66713715 1.0831909 2.1942596 1.0831909 4.581356l0 50.08218l21.557617 0l0 -51.48942c0 -5.7123604 -1.6354065 -10.116505 -4.9062195 -13.2124405c-3.2566528 -3.095932 -7.879669 -4.643898 -13.86908 -4.643898z" fill-rule="evenodd"/><path stroke="#3b8b30" stroke-width="4.0" stroke-linejoin="round" stroke-linecap="butt" d="m446.0709 62.327652l-1.6954956 17.101875c-0.2548828 0.21890259 -0.79293823 0.5107727 -1.6141663 0.875618c-0.8070984 0.36484528 -1.6354065 0.5472641 -2.4849854 0.5472641c-1.8831787 0 -3.2849731 -0.53684235 -4.2053223 -1.6105118c-0.90618896 -1.0736694 -1.359314 -2.6529083 -1.359314 -4.7377167c0 -2.741516 0.8424988 -4.993103 2.5274658 -6.7547607c1.684967 -1.7616577 3.4973755 -3.0855103 5.437195 -3.97155c1.1610718 -0.53162384 2.173462 -0.95900726 3.0371704 -1.2821541c0.13616943 -0.050125122 0.25534058 -0.10614395 0.3574524 -0.16806412zm-5.348633 -38.468544c-7.3062134 0 -13.401825 1.4333019 -18.286804 4.2999077c-4.870819 2.8561783 -7.3062134 7.01536 -7.3062134 12.477545c0 1.9701385 0.5663452 4.763775 1.6990967 8.380909l17.182404 0l0 -4.581356c0 -3.1793213 0.65130615 -5.258915 1.9539795 -6.2387733c1.3026733 -0.9798584 2.7185974 -1.4697838 4.2478027 -1.4697838c1.4159546 0 2.3787842 0.2449646 2.8885193 0.73489c0.52389526 0.47950745 0.8637085 1.3082161 1.0194702 2.4861298c0.16992188 1.1779137 0.2548828 2.5486717 0.2548828 4.112274l0 6.4107666c-0.43893433 0.114665985 -1.6212463 0.49514008 -3.546936 1.1414299c-1.911499 0.6358681 -3.688507 1.2560959 -5.3309937 1.8606873c-7.023041 2.5747337 -12.417755 5.582062 -16.184143 9.021984c-3.766388 3.4399223 -5.649597 8.052555 -5.649597 13.837879c0 3.022972 0.679657 5.8582993 2.038971 8.505997c1.3592834 2.647705 3.490265 4.8211136 6.3929443 6.5202255c2.902649 1.6991119 6.5841064 2.548668 11.044281 2.548668c4.1770325 0 7.8584595 -0.6775665 11.044312 -2.0326843c2.651825 -1.1229706 4.1076355 -1.9560242 4.3674316 -2.4991684l0 0l-0.09838867 3.7813263l17.479736 0l0 -50.83271c0 -3.9819756 -0.75753784 -7.359356 -2.272583 -10.132141c-1.500885 -2.7832127 -4.1416016 -4.868017 -7.9221497 -6.25441c-3.766388 -1.3863926 -8.7717285 -2.0795918 -15.016022 -2.0795918z" fill-rule="evenodd"/><path stroke="#3b8b30" stroke-width="4.0" stroke-linejoin="round" stroke-linecap="butt" d="m501.9544 23.812199c-1.9539795 0 -4.1345215 0.16678429 -6.5415955 0.50035286c-2.3929443 0.323143 -4.8496094 1.021553 -7.3699646 2.0952263c-2.5203552 1.0632496 -4.8000183 2.6789722 -6.8389587 4.847168c-2.0247803 2.1577702 -3.6389465 4.961828 -4.842499 8.41218c-1.1893921 3.450348 -1.7840881 7.7294083 -1.7840881 12.837173l0 12.1960945c0 10.007057 2.1522217 17.37162 6.456665 22.093704c4.3186035 4.7116547 10.654907 7.067482 19.008942 7.067482c8.084991 0 14.166443 -1.60009 18.244324 -4.8002625c4.092041 -3.2001724 6.1380615 -8.13073 6.1380615 -14.791672l0 -4.9566193l-18.499176 0l0 4.8158875c0 2.918724 -0.48849487 4.8002625 -1.4654846 5.6446075c-0.97698975 0.8443451 -1.8548889 1.2665176 -2.6336365 1.2665176c-1.8973694 0 -3.3132935 -0.88603973 -4.2478027 -2.6581268c-0.92037964 -1.7720795 -1.3805542 -5.347519 -1.3805542 -10.726311l0 -18.34105c0 -5.2641296 0.5097351 -8.69363 1.5292053 -10.288506c1.0336609 -1.5948715 2.272583 -2.392311 3.7168274 -2.392311c1.2460327 0 2.3009338 0.66192627 3.1646423 1.985775c0.87786865 1.313427 1.316803 3.4399261 1.316803 6.3794975l0 4.0184593l17.076202 0c0.7079468 -2.0848045 1.1610718 -3.7161598 1.359314 -4.8940773c0.21234131 -1.1779099 0.31854248 -2.543457 0.31854248 -4.0966377c0 -5.462181 -2.1380615 -9.527548 -6.4141846 -12.196096c-4.261963 -2.6789722 -9.699158 -4.0184574 -16.311584 -4.0184574z" fill-rule="evenodd"/><path stroke="#3b8b30" stroke-width="4.0" stroke-linejoin="round" stroke-linecap="butt" d="m529.75635 3.8293626l0 89.3286l21.557617 0l-2.1207886 -32.32198l16.733215 32.32198l22.216064 0l-21.79126 -37.557728l20.134583 -31.037504l-21.536377 0l-15.7907715 28.7758l2.1553345 -49.509167z" fill-rule="evenodd"/><path fill="#e03f3f" d="m4.280832 114.88422l0 103.3967l17.49971 0l0 -45.490707l11.265543 0l0 45.490707l17.499714 0l0 -103.3967l-17.499714 0l0 41.22415l-11.265543 0l0 -41.22415z" fill-rule="evenodd"/><path fill="#e03f3f" d="m122.6521 141.38234l3.9742432 43.09285l-7.9959946 0l4.0217514 -43.09285zm-62.11131 -26.498123l0 103.3967l53.651096 0l2.286995 -17.642792l12.315857 0l2.3886414 17.642792l17.686066 0l-17.025375 -103.3967l-18.43145 0l-15.348244 93.49042l0 -6.7755737l-20.023872 0l0 -28.808853l15.703995 0l0 -16.681839l-15.703995 0l0 -24.542313l20.023872 0l0 -16.681839z" fill-rule="evenodd"/><path fill="#e03f3f" d="m169.02884 130.5859c4.3255157 0 7.154602 0.9289093 8.487274 2.7867126c1.3326569 1.8578033 1.9989929 5.0289 1.9989929 9.51326l0 7.7835846c0 6.034683 -0.7171631 10.0578 -2.1514587 12.069351c-1.4343109 1.9987488 -4.2125854 2.9981232 -8.334808 2.9981232l0 -35.15103zm-17.059265 -15.701691l0 103.3967l17.49971 0l0 -36.842285l0.8470459 0l11.943161 36.842285l18.770264 0l-14.721436 -40.628372c7.408722 -3.9974976 11.113068 -13.895126 11.113068 -29.692917l0 -2.4792175c0 -5.650299 -0.66067505 -10.378098 -1.9820557 -14.183411c-1.3100739 -3.8053055 -3.0662537 -6.835457 -5.2685394 -9.090454c-2.1909943 -2.2549973 -4.5852814 -3.894989 -7.182846 -4.9199905c-2.5862732 -1.0378113 -5.1443176 -1.6976547 -7.674118 -1.9795303c-2.5298157 -0.28186798 -4.8280945 -0.4228058 -6.8948517 -0.4228058zm45.333237 0l0 16.681839l13.976044 0l0 86.71486l17.49971 0l0 -86.71486l13.925232 0l0 -16.681839z" fill-rule="evenodd"/><path fill="#e03f3f" d="m288.53513 141.38234l3.9742432 43.09285l-7.996002 0l4.021759 -43.09285zm127.868164 0l3.9742432 43.09285l-7.996002 0l4.021759 -43.09285zm-137.10764 -26.498123l-16.974548 103.3967l17.753815 0l2.2869873 -17.642792l12.315857 0l2.3886414 17.642792l17.686066 0l-17.02539 -103.3967zm28.18927 0l0 16.681839l13.976044 0l0 86.71486l17.499725 0l0 -86.71486l27.020355 0l0 86.71486l17.499695 0l0 -86.71486l13.925232 0l0 -16.681839zm99.678894 0l-16.974548 103.3967l17.753815 0l2.2869873 -17.642792l12.315857 0l2.3886414 17.642792l17.686066 0l-17.02539 -103.3967z" fill-rule="evenodd"/><path fill="#e03f3f" d="m467.70975 114.01937c-1.7505188 0 -3.6704407 0.19859314 -5.7598267 0.5957794c-2.089325 0.39718628 -4.212555 1.2620316 -6.36969 2.5945282c-2.1571045 1.3196869 -4.116577 3.2928085 -5.8783875 5.919365c-1.7505493 2.6265564 -3.139679 6.0410767 -4.1674194 10.243576c-1.0277405 4.202484 -1.5415955 9.37233 -1.5415955 15.509506l0 34.881973c0 7.6746674 0.7623291 13.882324 2.2869873 18.622925c1.5359497 4.7278137 3.5575256 8.321716 6.0647583 10.781708c2.5185242 2.4599915 5.1499634 4.0743713 7.894348 4.843109c2.7443848 0.7559509 5.2516174 1.1339111 7.5216675 1.1339111c6.460022 0 11.434937 -2.1524963 14.924713 -6.457489c3.4897766 -4.3049927 5.23468 -10.717636 5.23468 -19.23793l0 -11.569672l-15.873413 0l0 11.800293c0 3.3952942 -0.4291687 5.720764 -1.2874756 6.9763947c-0.8470459 1.2427979 -1.8465576 1.864212 -2.9985046 1.864212c-1.8860474 0 -3.3034363 -0.82640076 -4.2521057 -2.4792175c-0.9373779 -1.6528015 -1.4060974 -5.2915497 -1.4060974 -10.916229l0 -44.395233c0 -5.8424835 0.47436523 -9.647797 1.4230347 -11.415924c0.95996094 -1.7809296 2.2361755 -2.671402 3.8285828 -2.671402c3.0267334 0 4.5401 4.580475 4.5401 13.741394l0 7.18779l14.111572 0c0.6098633 -3.4849854 1.061615 -6.1563873 1.3552551 -8.014206c0.30493164 -1.8706207 0.45739746 -3.9398346 0.45739746 -6.2076416c0 -4.1256104 -0.63809204 -7.9693604 -1.9142761 -11.531227c-1.2762146 -3.5618668 -3.4050903 -6.419052 -6.3866577 -8.571548c-2.9815369 -2.1524963 -6.9174194 -3.2287445 -11.807648 -3.2287445z" fill-rule="evenodd"/><path fill="#e03f3f" d="m492.8836 114.88422l0 103.3967l17.499695 0l-1.698822 -47.12552l14.404327 47.12552l18.787231 0l-19.481812 -54.754135l17.618286 -48.642563l-17.821533 0l-13.501709 43.278275l1.6940308 -43.278275z" fill-rule="evenodd"/><path stroke="#9a2828" stroke-width="4.0" stroke-linejoin="round" stroke-linecap="butt" d="m4.280832 114.88422l0 103.3967l17.49971 0l0 -45.490707l11.265543 0l0 45.490707l17.499714 0l0 -103.3967l-17.499714 0l0 41.22415l-11.265543 0l0 -41.22415z" fill-rule="evenodd"/><path stroke="#9a2828" stroke-width="4.0" stroke-linejoin="round" stroke-linecap="butt" d="m122.6521 141.38234l3.9742432 43.09285l-7.9959946 0l4.0217514 -43.09285zm-62.11131 -26.498123l0 103.3967l53.651096 0l2.286995 -17.642792l12.315857 0l2.3886414 17.642792l17.686066 0l-17.025375 -103.3967l-18.43145 0l-15.348244 93.49042l0 -6.7755737l-20.023872 0l0 -28.808853l15.703995 0l0 -16.681839l-15.703995 0l0 -24.542313l20.023872 0l0 -16.681839z" fill-rule="evenodd"/><path stroke="#9a2828" stroke-width="4.0" stroke-linejoin="round" stroke-linecap="butt" d="m169.02884 130.5859c4.3255157 0 7.154602 0.9289093 8.487274 2.7867126c1.3326569 1.8578033 1.9989929 5.0289 1.9989929 9.51326l0 7.7835846c0 6.034683 -0.7171631 10.0578 -2.1514587 12.069351c-1.4343109 1.9987488 -4.2125854 2.9981232 -8.334808 2.9981232l0 -35.15103zm-17.059265 -15.701691l0 103.3967l17.49971 0l0 -36.842285l0.8470459 0l11.943161 36.842285l18.770264 0l-14.721436 -40.628372c7.408722 -3.9974976 11.113068 -13.895126 11.113068 -29.692917l0 -2.4792175c0 -5.650299 -0.66067505 -10.378098 -1.9820557 -14.183411c-1.3100739 -3.8053055 -3.0662537 -6.835457 -5.2685394 -9.090454c-2.1909943 -2.2549973 -4.5852814 -3.894989 -7.182846 -4.9199905c-2.5862732 -1.0378113 -5.1443176 -1.6976547 -7.674118 -1.9795303c-2.5298157 -0.28186798 -4.8280945 -0.4228058 -6.8948517 -0.4228058zm45.333237 0l0 16.681839l13.976044 0l0 86.71486l17.49971 0l0 -86.71486l13.925232 0l0 -16.681839z" fill-rule="evenodd"/><path stroke="#9a2828" stroke-width="4.0" stroke-linejoin="round" stroke-linecap="butt" d="m288.53513 141.38234l3.9742432 43.09285l-7.996002 0l4.021759 -43.09285zm127.868164 0l3.9742432 43.09285l-7.996002 0l4.021759 -43.09285zm-137.10764 -26.498123l-16.974548 103.3967l17.753815 0l2.2869873 -17.642792l12.315857 0l2.3886414 17.642792l17.686066 0l-17.02539 -103.3967zm28.18927 0l0 16.681839l13.976044 0l0 86.71486l17.499725 0l0 -86.71486l27.020355 0l0 86.71486l17.499695 0l0 -86.71486l13.925232 0l0 -16.681839zm99.678894 0l-16.974548 103.3967l17.753815 0l2.2869873 -17.642792l12.315857 0l2.3886414 17.642792l17.686066 0l-17.02539 -103.3967z" fill-rule="evenodd"/><path stroke="#9a2828" stroke-width="4.0" stroke-linejoin="round" stroke-linecap="butt" d="m467.70975 114.01937c-1.7505188 0 -3.6704407 0.19859314 -5.7598267 0.5957794c-2.089325 0.39718628 -4.212555 1.2620316 -6.36969 2.5945282c-2.1571045 1.3196869 -4.116577 3.2928085 -5.8783875 5.919365c-1.7505493 2.6265564 -3.139679 6.0410767 -4.1674194 10.243576c-1.0277405 4.202484 -1.5415955 9.37233 -1.5415955 15.509506l0 34.881973c0 7.6746674 0.7623291 13.882324 2.2869873 18.622925c1.5359497 4.7278137 3.5575256 8.321716 6.0647583 10.781708c2.5185242 2.4599915 5.1499634 4.0743713 7.894348 4.843109c2.7443848 0.7559509 5.2516174 1.1339111 7.5216675 1.1339111c6.460022 0 11.434937 -2.1524963 14.924713 -6.457489c3.4897766 -4.3049927 5.23468 -10.717636 5.23468 -19.23793l0 -11.569672l-15.873413 0l0 11.800293c0 3.3952942 -0.4291687 5.720764 -1.2874756 6.9763947c-0.8470459 1.2427979 -1.8465576 1.864212 -2.9985046 1.864212c-1.8860474 0 -3.3034363 -0.82640076 -4.2521057 -2.4792175c-0.9373779 -1.6528015 -1.4060974 -5.2915497 -1.4060974 -10.916229l0 -44.395233c0 -5.8424835 0.47436523 -9.647797 1.4230347 -11.415924c0.95996094 -1.7809296 2.2361755 -2.671402 3.8285828 -2.671402c3.0267334 0 4.5401 4.580475 4.5401 13.741394l0 7.18779l14.111572 0c0.6098633 -3.4849854 1.061615 -6.1563873 1.3552551 -8.014206c0.30493164 -1.8706207 0.45739746 -3.9398346 0.45739746 -6.2076416c0 -4.1256104 -0.63809204 -7.9693604 -1.9142761 -11.531227c-1.2762146 -3.5618668 -3.4050903 -6.419052 -6.3866577 -8.571548c-2.9815369 -2.1524963 -6.9174194 -3.2287445 -11.807648 -3.2287445z" fill-rule="evenodd"/><path stroke="#9a2828" stroke-width="4.0" stroke-linejoin="round" stroke-linecap="butt" d="m492.8836 114.88422l0 103.3967l17.499695 0l-1.698822 -47.12552l14.404327 47.12552l18.787231 0l-19.481812 -54.754135l17.618286 -48.642563l-17.821533 0l-13.501709 43.278275l1.6940308 -43.278275z" fill-rule="evenodd"/><path fill="#000000" d="m267.73254 77.0312c2.6325073 0 4.5812683 1.0541229 5.8462524 3.1623764c1.2649536 2.0968475 1.8974609 5.948677 1.8974609 11.555473l0 39.486916c0 5.4358673 -0.6325073 9.145233 -1.8974609 11.128128c-1.2649841 1.9828949 -3.213745 2.97435 -5.8462524 2.97435c-2.7008972 0 -4.695221 -0.9914551 -5.982971 -2.97435c-1.2763672 -1.9828949 -1.9145508 -5.6922607 -1.9145508 -11.128128l0 -39.486916c0 -5.6067963 0.6381836 -9.458626 1.9145508 -11.555473c1.2877502 -2.1082535 3.282074 -3.1623764 5.982971 -3.1623764zm0 -10.410187c-1.6410522 0 -3.4359436 0.16524506 -5.384674 0.49572754c-1.948761 0.31908417 -3.8917847 1.0028381 -5.829132 2.051262c-1.9259644 1.0370331 -3.686676 2.6096725 -5.282135 4.7179184c-1.5840607 2.0968552 -2.8661346 4.9002533 -3.8462067 8.410202c-0.9686737 3.4985504 -1.4530029 7.880287 -1.4530029 13.14521l0 31.025436c0 6.5640564 0.71795654 11.806183 2.1538696 15.726395c1.4359131 3.9087982 3.2820892 6.837555 5.5385284 8.786255c2.2564545 1.9487152 4.6382446 3.2307587 7.1454163 3.8461304c2.5185242 0.61538696 4.8376465 0.92308044 6.9573364 0.92308044c1.9145508 0 4.091217 -0.32479858 6.529999 -0.97436523c2.4501953 -0.64956665 4.820587 -1.9544067 7.111206 -3.914505c2.2906494 -1.9714966 4.1881104 -4.905945 5.692383 -8.80336c1.504303 -3.8974 2.2564392 -9.093948 2.2564392 -15.58963l0 -31.025436c0 -5.367485 -0.49002075 -9.811897 -1.4700928 -13.333244c-0.96868896 -3.5213394 -2.2507324 -6.324745 -3.846222 -8.410202c-1.5840454 -2.0854492 -3.333374 -3.6296005 -5.247925 -4.6324463c-1.9145508 -1.0142365 -3.8404846 -1.6752014 -5.7778625 -1.9828873c-1.9259338 -0.30769348 -3.6752625 -0.46154022 -5.247925 -0.46154022z" fill-rule="evenodd"/><path fill="#000000" d="m317.4255 76.97992c5.059906 0 8.450256 1.0598221 10.171082 3.1794662c1.7322083 2.1196442 2.5983276 5.4358597 2.5983276 9.948647l0 6.9230347c0 5.8803024 -0.9173889 9.948647 -2.7521667 12.20504c-1.8233948 2.256401 -5.1624756 3.3845978 -10.017242 3.3845978l-1.7435913 0l0 -35.640785zm-15.025818 -9.589684l0 87.589165l13.282227 0l0 -32.76902l4.564148 0l12.051453 32.76902l14.154022 0l-14.410431 -35.025414c7.897522 -3.7606583 11.846313 -12.205048 11.846313 -25.33316l0 -2.2051163c0 -4.7521057 -0.6097107 -8.67231 -1.8291016 -11.760605c-1.2079773 -3.0996933 -2.8034363 -5.544121 -4.786377 -7.3332825c-1.9829407 -1.80056 -4.17099 -3.1167908 -6.564209 -3.9486923c-2.3931885 -0.84329987 -4.803467 -1.3846054 -7.2308655 -1.6239243c-2.4273682 -0.23931122 -4.6496277 -0.35897064 -6.666748 -0.35897064z" fill-rule="evenodd"/><path stroke="#000000" stroke-width="4.0" stroke-linejoin="round" stroke-linecap="butt" d="m267.73254 77.0312c2.6325073 0 4.5812683 1.0541229 5.8462524 3.1623764c1.2649536 2.0968475 1.8974609 5.948677 1.8974609 11.555473l0 39.486916c0 5.4358673 -0.6325073 9.145233 -1.8974609 11.128128c-1.2649841 1.9828949 -3.213745 2.97435 -5.8462524 2.97435c-2.7008972 0 -4.695221 -0.9914551 -5.982971 -2.97435c-1.2763672 -1.9828949 -1.9145508 -5.6922607 -1.9145508 -11.128128l0 -39.486916c0 -5.6067963 0.6381836 -9.458626 1.9145508 -11.555473c1.2877502 -2.1082535 3.282074 -3.1623764 5.982971 -3.1623764zm0 -10.410187c-1.6410522 0 -3.4359436 0.16524506 -5.384674 0.49572754c-1.948761 0.31908417 -3.8917847 1.0028381 -5.829132 2.051262c-1.9259644 1.0370331 -3.686676 2.6096725 -5.282135 4.7179184c-1.5840607 2.0968552 -2.8661346 4.9002533 -3.8462067 8.410202c-0.9686737 3.4985504 -1.4530029 7.880287 -1.4530029 13.14521l0 31.025436c0 6.5640564 0.71795654 11.806183 2.1538696 15.726395c1.4359131 3.9087982 3.2820892 6.837555 5.5385284 8.786255c2.2564545 1.9487152 4.6382446 3.2307587 7.1454163 3.8461304c2.5185242 0.61538696 4.8376465 0.92308044 6.9573364 0.92308044c1.9145508 0 4.091217 -0.32479858 6.529999 -0.97436523c2.4501953 -0.64956665 4.820587 -1.9544067 7.111206 -3.914505c2.2906494 -1.9714966 4.1881104 -4.905945 5.692383 -8.80336c1.504303 -3.8974 2.2564392 -9.093948 2.2564392 -15.58963l0 -31.025436c0 -5.367485 -0.49002075 -9.811897 -1.4700928 -13.333244c-0.96868896 -3.5213394 -2.2507324 -6.324745 -3.846222 -8.410202c-1.5840454 -2.0854492 -3.333374 -3.6296005 -5.247925 -4.6324463c-1.9145508 -1.0142365 -3.8404846 -1.6752014 -5.7778625 -1.9828873c-1.9259338 -0.30769348 -3.6752625 -0.46154022 -5.247925 -0.46154022z" fill-rule="evenodd"/><path stroke="#000000" stroke-width="4.0" stroke-linejoin="round" stroke-linecap="butt" d="m317.4255 76.97992c5.059906 0 8.450256 1.0598221 10.171082 3.1794662c1.7322083 2.1196442 2.5983276 5.4358597 2.5983276 9.948647l0 6.9230347c0 5.8803024 -0.9173889 9.948647 -2.7521667 12.20504c-1.8233948 2.256401 -5.1624756 3.3845978 -10.017242 3.3845978l-1.7435913 0l0 -35.640785zm-15.025818 -9.589684l0 87.589165l13.282227 0l0 -32.76902l4.564148 0l12.051453 32.76902l14.154022 0l-14.410431 -35.025414c7.897522 -3.7606583 11.846313 -12.205048 11.846313 -25.33316l0 -2.2051163c0 -4.7521057 -0.6097107 -8.67231 -1.8291016 -11.760605c-1.2079773 -3.0996933 -2.8034363 -5.544121 -4.786377 -7.3332825c-1.9829407 -1.80056 -4.17099 -3.1167908 -6.564209 -3.9486923c-2.3931885 -0.84329987 -4.803467 -1.3846054 -7.2308655 -1.6239243c-2.4273682 -0.23931122 -4.6496277 -0.35897064 -6.666748 -0.35897064z" fill-rule="evenodd"/><defs><linearGradient id="p.1" gradientUnits="userSpaceOnUse" gradientTransform="matrix(3.818574573226092 10.183075785424489 -10.183075785424489 3.818574573226092 0.0 0.0)" spreadMethod="pad" x1="29.15970731661824" y1="-45.474097724189114" x2="36.36021700237264" y2="-38.273563527544"><stop offset="0.0" stop-color="#ffff00" stop-opacity="0.32941177"/><stop offset="1.0" stop-color="#ff00ff" stop-opacity="0.32941177"/></linearGradient></defs><path fill="url(#p.1)" d="m653.7733 176.75754c-1.772583 -4.726883 -4.2234497 -8.288757 -7.352722 -10.685593c-3.1252441 -2.386261 -6.6309814 -3.707138 -10.517151 -3.962616c-3.8862305 -0.25549316 -7.8327637 0.368042 -11.839722 1.870575c-2.123413 0.7962494 -4.003357 1.6580048 -5.6397705 2.5852509c-1.6324463 0.93782043 -3.9890747 2.2798615 -7.0698853 4.0261536l5.038025 13.43515l6.7302246 -2.5237274c4.4747925 -1.6779785 7.904358 -2.4212494 10.288696 -2.2297974c2.3963623 0.18696594 3.9176636 1.142273 4.564087 2.8659515c0.63049316 1.6813812 0.45629883 3.2604218 -0.522522 4.737137c-0.9788208 1.4767303 -2.6679077 2.6649475 -5.0672607 3.5646667c-1.739502 0.652298 -3.8179321 1.075882 -6.2353516 1.2707214c-2.4173584 0.19483948 -4.8778687 0.11035156 -7.381592 -0.2534485l-12.146973 -1.849823c-2.1322632 -0.32214355 -4.0093994 -0.47462463 -5.6313477 -0.4574585c-1.6099243 0.012680054 -3.1864014 0.22390747 -4.729553 0.6336975c-1.5271606 0.41586304 -3.286438 0.9971771 -5.277893 1.7439423l-13.262451 4.973236l5.4663696 14.577225l10.0772705 -3.7788544c1.8955078 -0.71076965 3.4308472 -1.1960449 4.606018 -1.4557953c1.1911621 -0.25367737 2.4417114 -0.33061218 3.751709 -0.23083496c1.3139648 0.11036682 3.0628662 0.4134674 5.246582 0.909317l7.2579956 1.6205597c4.906555 1.0790253 9.261597 1.544693 13.065002 1.3970032c3.8034058 -0.14768982 7.624634 -0.9413147 11.463562 -2.3808746c6.95813 -2.6092072 11.886597 -6.543991 14.7854 -11.804352c2.8988037 -5.2603455 3.0098877 -11.459488 0.33325195 -18.597412zm-78.38782 29.720016c-1.0785522 -2.8763123 -2.994812 -4.7751465 -5.748596 -5.6964874c-2.7418823 -0.9258423 -6.302185 -0.56777954 -10.68103 1.074234c-3.9589233 1.4845428 -6.732849 3.5017395 -8.321899 6.0515747c-1.572998 2.5559235 -1.828186 5.2509003 -0.7654419 8.084915c1.1182861 2.982071 3.1343384 4.8917084 6.0481567 5.7289124c2.9259033 0.8327179 6.3082886 0.5292969 10.147217 -0.91026306c4.126892 -1.5475311 6.9907837 -3.5803528 8.591675 -6.098465c1.6009521 -2.5181274 1.8442383 -5.262924 0.72991943 -8.234421z" fill-rule="evenodd"/><defs><linearGradient id="p.2" gradientUnits="userSpaceOnUse" gradientTransform="matrix(9.48324793540078 6.815085961595125 -6.815085961595125 9.48324793540078 0.0 0.0)" spreadMethod="pad" x1="42.6918696034529" y1="-17.149880783791016" x2="49.39752535716435" y2="-10.44419869193789"><stop offset="0.0" stop-color="#ffff00" stop-opacity="0.65882355"/><stop offset="1.0" stop-color="#ff00ff" stop-opacity="0.65882355"/></linearGradient></defs><path fill="url(#p.2)" d="m617.42505 128.69414c-4.0994873 -2.9460907 -8.115967 -4.546623 -12.049438 -4.8015823c-3.9242554 -0.24836731 -7.57312 0.60050964 -10.946655 2.5466385c-3.3734741 1.9461365 -6.308899 4.6567383 -8.806213 8.131805c-1.3234863 1.8415833 -2.408081 3.6023712 -3.2538452 5.282379c-0.83654785 1.6865997 -2.0507812 4.1115723 -3.6426392 7.274933l11.651978 8.373627l4.194702 -5.8368835c2.7889404 -3.880844 5.2279663 -6.4038544 7.3170166 -7.569031c2.0964966 -1.1755829 3.892212 -1.2262268 5.387146 -0.1519165c1.4581909 1.0479431 2.1904907 2.4577332 2.1967773 4.2293854c0.006286621 1.7716522 -0.73828125 3.6979218 -2.2337036 5.7787933c-1.0841675 1.5086517 -2.5772095 3.015335 -4.479187 4.5200806c-1.9019165 1.5047607 -3.994934 2.8012085 -6.2789307 3.8893585l-11.128296 5.208786c-1.9520874 0.9165039 -3.5976562 1.8323364 -4.9368286 2.7475128c-1.3317261 0.9047699 -2.5253296 1.9561005 -3.5808716 3.1539764c-1.0389404 1.1940613 -2.179016 2.654663 -3.420227 4.38179l-8.265991 11.50209l12.642456 9.085434l6.2808228 -8.7397c1.1813965 -1.6439056 2.1885376 -2.9002228 3.0214844 -3.768982c0.8496094 -0.8725586 1.8468018 -1.6311646 2.9915771 -2.2758331c1.1539307 -0.6380768 2.7765503 -1.3574371 4.867859 -2.158081l6.935547 -2.6838531c4.6793823 -1.828064 8.559448 -3.8598175 11.640137 -6.0952454c3.0806885 -2.2354126 5.817383 -5.0178375 8.210083 -8.347244c4.336731 -6.034561 6.2494507 -12.044052 5.738098 -18.028442c-0.51135254 -5.9843903 -3.8623047 -11.200989 -10.052856 -15.649796zm-48.675415 68.254074c-2.4945679 -1.7926941 -5.1427 -2.307312 -7.944397 -1.5438538c-2.7942505 0.753067 -5.555908 3.0283966 -8.285095 6.8260193c-2.4674683 3.4334564 -3.6536865 6.651657 -3.5587158 9.654587c0.1116333 2.9991302 1.3963623 5.381851 3.854248 7.1481934c2.5863037 1.8586121 5.3234253 2.3267517 8.211487 1.4044495c2.8955078 -0.932724 5.539612 -3.0637817 7.932312 -6.3932037c2.5721436 -3.5791168 3.824463 -6.86026 3.757019 -9.843414c-0.06744385 -2.9831696 -1.3897705 -5.400757 -3.966858 -7.252777z" fill-rule="evenodd"/><defs><linearGradient id="p.3" gradientUnits="userSpaceOnUse" gradientTransform="matrix(10.418663538022708 2.106977679858467 -2.106977679858467 10.418663538022708 0.0 0.0)" spreadMethod="pad" x1="47.80539130882935" y1="4.826998101257937" x2="55.17248568506477" y2="12.19411900227241"><stop offset="0.0" stop-color="#ffff00"/><stop offset="1.0" stop-color="#ff00ff"/></linearGradient></defs><path fill="url(#p.3)" d="m575.2873 112.03215c-4.94812 -1.0006638 -9.267517 -0.80882263 -12.95813 0.57553864c-3.6795044 1.3865967 -6.6569824 3.6602707 -8.932373 6.8210144c-2.2753906 3.1607513 -3.8372192 6.8383484 -4.685486 11.032799c-0.44952393 2.2228088 -0.7145386 4.2737885 -0.7949829 6.152939c-0.06933594 1.8813934 -0.1795044 4.5911255 -0.33044434 8.129227l14.064026 2.8441772l1.4247437 -7.0451813c0.94732666 -4.6842194 2.133728 -7.9867554 3.559204 -9.907623c1.4280396 -1.9334259 3.0442505 -2.7176895 4.848572 -2.3527985c1.7600708 0.35594177 3.007141 1.3401489 3.7410889 2.9526367c0.73394775 1.6124725 0.84698486 3.67453 0.33898926 6.1861877c-0.3682251 1.8209381 -1.1100464 3.8081665 -2.2253418 5.9617004c-1.1153564 2.1535187 -2.4904785 4.1956787 -4.125366 6.12648l-8.003784 9.32254c-1.402771 1.6378632 -2.5265503 3.14917 -3.3711548 4.533905c-0.84210205 1.3721771 -1.4981079 2.8212128 -1.9680176 4.3470917c-0.45629883 1.515564 -0.89520264 3.3156738 -1.3168335 5.400345l-2.8076172 13.883133l15.2595215 3.0859528l2.1333618 -10.54892c0.40130615 -1.9842072 0.80303955 -3.5434723 1.2052612 -4.6778107c0.41583252 -1.1446533 1.0130615 -2.2460938 1.791687 -3.3043213c0.78967285 -1.0559845 1.9732056 -2.3787231 3.5505981 -3.968216l5.2194214 -5.297394c3.5144043 -3.58992 6.2164307 -7.0369415 8.106018 -10.341064c1.8895874 -3.304123 3.2407227 -6.965515 4.053406 -10.984146c1.4730835 -7.283783 0.74658203 -13.548325 -2.1793823 -18.793625c-2.9259644 -5.2453003 -8.124939 -8.623489 -15.596985 -10.134567zm-16.318481 82.22902c-3.0109863 -0.60891724 -5.6365967 0.010421753 -7.876831 1.858017c-2.237793 1.8350372 -3.8201294 5.0444336 -4.7471313 9.628189c-0.83807373 4.144226 -0.5966797 7.5655823 0.7241821 10.264069c1.3345337 2.6881714 3.4851074 4.3322296 6.451782 4.93219c3.121643 0.6313019 5.809326 -0.06700134 8.062988 -2.0948792c2.2562866 -2.040451 3.7907104 -5.069992 4.6034546 -9.088623c0.8736572 -4.320038 0.666626 -7.825943 -0.6210327 -10.517715c-1.2877197 -2.6917725 -3.4868774 -4.352188 -6.597412 -4.981247z" fill-rule="evenodd"/></g></svg>